<mxfile host="app.diagrams.net" modified="2023-11-15T10:14:15.293Z" agent="Mozilla/5.0 (Windows NT 10.0; Win64; x64) AppleWebKit/537.36 (KHTML, like Gecko) Chrome/119.0.0.0 Safari/537.36" etag="ml5ugksvMNhZAvpah0km" version="21.2.9" type="github">
  <diagram id="C5RBs43oDa-KdzZeNtuy" name="Page-1">
    <mxGraphModel dx="1050" dy="569" grid="1" gridSize="10" guides="1" tooltips="1" connect="1" arrows="1" fold="1" page="1" pageScale="1" pageWidth="827" pageHeight="1169" math="0" shadow="0">
      <root>
        <mxCell id="WIyWlLk6GJQsqaUBKTNV-0" />
        <mxCell id="WIyWlLk6GJQsqaUBKTNV-1" parent="WIyWlLk6GJQsqaUBKTNV-0" />
        <mxCell id="xkh5T4BdzmFQDQVvTXRG-61" value="start" style="strokeWidth=2;html=1;shape=mxgraph.flowchart.start_1;whiteSpace=wrap;" vertex="1" parent="WIyWlLk6GJQsqaUBKTNV-1">
          <mxGeometry x="200" y="20" width="100" height="60" as="geometry" />
        </mxCell>
        <mxCell id="xkh5T4BdzmFQDQVvTXRG-108" style="edgeStyle=elbowEdgeStyle;rounded=0;orthogonalLoop=1;jettySize=auto;html=1;" edge="1" parent="WIyWlLk6GJQsqaUBKTNV-1" source="xkh5T4BdzmFQDQVvTXRG-64">
          <mxGeometry relative="1" as="geometry">
            <mxPoint x="70" y="270" as="targetPoint" />
          </mxGeometry>
        </mxCell>
        <mxCell id="xkh5T4BdzmFQDQVvTXRG-64" value="i = i +1&amp;nbsp;" style="rounded=0;whiteSpace=wrap;html=1;" vertex="1" parent="WIyWlLk6GJQsqaUBKTNV-1">
          <mxGeometry x="5" y="403" width="120" height="60" as="geometry" />
        </mxCell>
        <mxCell id="xkh5T4BdzmFQDQVvTXRG-103" style="edgeStyle=orthogonalEdgeStyle;rounded=0;orthogonalLoop=1;jettySize=auto;html=1;exitX=0.5;exitY=1;exitDx=0;exitDy=0;entryX=0.5;entryY=0;entryDx=0;entryDy=0;" edge="1" parent="WIyWlLk6GJQsqaUBKTNV-1" source="xkh5T4BdzmFQDQVvTXRG-65">
          <mxGeometry relative="1" as="geometry">
            <mxPoint x="250" y="525" as="targetPoint" />
          </mxGeometry>
        </mxCell>
        <mxCell id="xkh5T4BdzmFQDQVvTXRG-107" style="edgeStyle=orthogonalEdgeStyle;rounded=0;orthogonalLoop=1;jettySize=auto;html=1;exitX=0;exitY=0.5;exitDx=0;exitDy=0;entryX=1;entryY=0.5;entryDx=0;entryDy=0;" edge="1" parent="WIyWlLk6GJQsqaUBKTNV-1" source="xkh5T4BdzmFQDQVvTXRG-65" target="xkh5T4BdzmFQDQVvTXRG-64">
          <mxGeometry relative="1" as="geometry" />
        </mxCell>
        <mxCell id="xkh5T4BdzmFQDQVvTXRG-65" value="if max &amp;lt; a[i]&amp;nbsp;&lt;br&gt;" style="rhombus;whiteSpace=wrap;html=1;" vertex="1" parent="WIyWlLk6GJQsqaUBKTNV-1">
          <mxGeometry x="195" y="378" width="110" height="110" as="geometry" />
        </mxCell>
        <mxCell id="xkh5T4BdzmFQDQVvTXRG-69" value="end" style="ellipse;whiteSpace=wrap;html=1;" vertex="1" parent="WIyWlLk6GJQsqaUBKTNV-1">
          <mxGeometry x="550" y="248" width="120" height="80" as="geometry" />
        </mxCell>
        <mxCell id="xkh5T4BdzmFQDQVvTXRG-71" value="" style="endArrow=classic;html=1;rounded=0;entryX=0.5;entryY=0;entryDx=0;entryDy=0;" edge="1" parent="WIyWlLk6GJQsqaUBKTNV-1">
          <mxGeometry width="50" height="50" relative="1" as="geometry">
            <mxPoint x="250" y="80" as="sourcePoint" />
            <mxPoint x="250" y="120" as="targetPoint" />
          </mxGeometry>
        </mxCell>
        <mxCell id="xkh5T4BdzmFQDQVvTXRG-72" value="" style="endArrow=classic;html=1;rounded=0;entryX=0.5;entryY=0;entryDx=0;entryDy=0;" edge="1" parent="WIyWlLk6GJQsqaUBKTNV-1">
          <mxGeometry width="50" height="50" relative="1" as="geometry">
            <mxPoint x="250" y="180" as="sourcePoint" />
            <mxPoint x="250" y="230" as="targetPoint" />
          </mxGeometry>
        </mxCell>
        <mxCell id="xkh5T4BdzmFQDQVvTXRG-77" value="" style="endArrow=classic;html=1;rounded=0;entryX=0.03;entryY=0.408;entryDx=0;entryDy=0;exitX=1;exitY=0.5;exitDx=0;exitDy=0;entryPerimeter=0;" edge="1" parent="WIyWlLk6GJQsqaUBKTNV-1" source="xkh5T4BdzmFQDQVvTXRG-104" target="xkh5T4BdzmFQDQVvTXRG-69">
          <mxGeometry width="50" height="50" relative="1" as="geometry">
            <mxPoint x="250" y="585" as="sourcePoint" />
            <mxPoint x="300" y="670" as="targetPoint" />
          </mxGeometry>
        </mxCell>
        <mxCell id="xkh5T4BdzmFQDQVvTXRG-79" value="1: input&amp;nbsp; n&lt;br&gt;2: gọi i= 1&lt;br&gt;3: đặt một biến &quot; max &quot; lấy số bất kì&lt;br&gt;4 : kiểm tra true &amp;gt; trở lại ban đầu false thì frint max&lt;br&gt;5: update số lớn nhất&lt;br&gt;6: print số lớn nhất&amp;nbsp;&lt;br&gt;7 :end&lt;br&gt;&amp;nbsp;" style="text;html=1;strokeColor=none;fillColor=none;align=left;verticalAlign=middle;whiteSpace=wrap;rounded=0;" vertex="1" parent="WIyWlLk6GJQsqaUBKTNV-1">
          <mxGeometry x="520" y="10" width="270" height="140" as="geometry" />
        </mxCell>
        <mxCell id="xkh5T4BdzmFQDQVvTXRG-98" style="edgeStyle=orthogonalEdgeStyle;rounded=0;orthogonalLoop=1;jettySize=auto;html=1;exitX=0.5;exitY=1;exitDx=0;exitDy=0;entryX=0.5;entryY=0;entryDx=0;entryDy=0;" edge="1" parent="WIyWlLk6GJQsqaUBKTNV-1" source="xkh5T4BdzmFQDQVvTXRG-91" target="xkh5T4BdzmFQDQVvTXRG-65">
          <mxGeometry relative="1" as="geometry" />
        </mxCell>
        <mxCell id="xkh5T4BdzmFQDQVvTXRG-105" style="edgeStyle=orthogonalEdgeStyle;rounded=0;orthogonalLoop=1;jettySize=auto;html=1;exitX=1;exitY=0.5;exitDx=0;exitDy=0;entryX=0;entryY=0.5;entryDx=0;entryDy=0;" edge="1" parent="WIyWlLk6GJQsqaUBKTNV-1" source="xkh5T4BdzmFQDQVvTXRG-91" target="xkh5T4BdzmFQDQVvTXRG-104">
          <mxGeometry relative="1" as="geometry" />
        </mxCell>
        <mxCell id="xkh5T4BdzmFQDQVvTXRG-91" value="i &amp;lt; n&amp;nbsp;" style="rhombus;whiteSpace=wrap;html=1;" vertex="1" parent="WIyWlLk6GJQsqaUBKTNV-1">
          <mxGeometry x="190" y="230" width="120" height="100" as="geometry" />
        </mxCell>
        <mxCell id="xkh5T4BdzmFQDQVvTXRG-106" style="edgeStyle=orthogonalEdgeStyle;rounded=0;orthogonalLoop=1;jettySize=auto;html=1;exitX=0;exitY=0.5;exitDx=0;exitDy=0;" edge="1" parent="WIyWlLk6GJQsqaUBKTNV-1" source="xkh5T4BdzmFQDQVvTXRG-94" target="xkh5T4BdzmFQDQVvTXRG-64">
          <mxGeometry relative="1" as="geometry" />
        </mxCell>
        <mxCell id="xkh5T4BdzmFQDQVvTXRG-94" value="&lt;br&gt;&amp;nbsp;max = a[i]&amp;nbsp;&amp;nbsp;" style="rounded=0;whiteSpace=wrap;html=1;" vertex="1" parent="WIyWlLk6GJQsqaUBKTNV-1">
          <mxGeometry x="190" y="525" width="120" height="60" as="geometry" />
        </mxCell>
        <mxCell id="xkh5T4BdzmFQDQVvTXRG-96" value="false" style="text;html=1;align=center;verticalAlign=middle;resizable=0;points=[];autosize=1;strokeColor=none;fillColor=none;" vertex="1" parent="WIyWlLk6GJQsqaUBKTNV-1">
          <mxGeometry x="330" y="280" width="50" height="30" as="geometry" />
        </mxCell>
        <mxCell id="xkh5T4BdzmFQDQVvTXRG-97" value="true" style="text;html=1;align=center;verticalAlign=middle;resizable=0;points=[];autosize=1;strokeColor=none;fillColor=none;" vertex="1" parent="WIyWlLk6GJQsqaUBKTNV-1">
          <mxGeometry x="250" y="488" width="40" height="30" as="geometry" />
        </mxCell>
        <mxCell id="xkh5T4BdzmFQDQVvTXRG-100" value="false" style="text;html=1;align=center;verticalAlign=middle;resizable=0;points=[];autosize=1;strokeColor=none;fillColor=none;" vertex="1" parent="WIyWlLk6GJQsqaUBKTNV-1">
          <mxGeometry x="125" y="388" width="50" height="30" as="geometry" />
        </mxCell>
        <mxCell id="xkh5T4BdzmFQDQVvTXRG-101" value="true&lt;br&gt;" style="text;html=1;align=center;verticalAlign=middle;resizable=0;points=[];autosize=1;strokeColor=none;fillColor=none;" vertex="1" parent="WIyWlLk6GJQsqaUBKTNV-1">
          <mxGeometry x="250" y="328" width="40" height="30" as="geometry" />
        </mxCell>
        <mxCell id="xkh5T4BdzmFQDQVvTXRG-104" value="print max" style="shape=parallelogram;perimeter=parallelogramPerimeter;whiteSpace=wrap;html=1;fixedSize=1;" vertex="1" parent="WIyWlLk6GJQsqaUBKTNV-1">
          <mxGeometry x="400" y="250" width="120" height="60" as="geometry" />
        </mxCell>
        <mxCell id="xkh5T4BdzmFQDQVvTXRG-109" value="" style="endArrow=classic;html=1;rounded=0;entryX=0;entryY=0.5;entryDx=0;entryDy=0;" edge="1" parent="WIyWlLk6GJQsqaUBKTNV-1" target="xkh5T4BdzmFQDQVvTXRG-91">
          <mxGeometry width="50" height="50" relative="1" as="geometry">
            <mxPoint x="70" y="280" as="sourcePoint" />
            <mxPoint x="120" y="230" as="targetPoint" />
          </mxGeometry>
        </mxCell>
        <mxCell id="xkh5T4BdzmFQDQVvTXRG-110" value="i =2&lt;br style=&quot;border-color: var(--border-color);&quot;&gt;max = a[i]" style="rounded=0;whiteSpace=wrap;html=1;" vertex="1" parent="WIyWlLk6GJQsqaUBKTNV-1">
          <mxGeometry x="190" y="120" width="120" height="60" as="geometry" />
        </mxCell>
        <mxCell id="xkh5T4BdzmFQDQVvTXRG-135" style="edgeStyle=orthogonalEdgeStyle;rounded=0;orthogonalLoop=1;jettySize=auto;html=1;exitX=0.5;exitY=1;exitDx=0;exitDy=0;entryX=0.5;entryY=0;entryDx=0;entryDy=0;" edge="1" parent="WIyWlLk6GJQsqaUBKTNV-1" source="xkh5T4BdzmFQDQVvTXRG-125" target="xkh5T4BdzmFQDQVvTXRG-134">
          <mxGeometry relative="1" as="geometry" />
        </mxCell>
        <mxCell id="xkh5T4BdzmFQDQVvTXRG-125" value="start" style="ellipse;whiteSpace=wrap;html=1;" vertex="1" parent="WIyWlLk6GJQsqaUBKTNV-1">
          <mxGeometry x="640" y="338" width="120" height="80" as="geometry" />
        </mxCell>
        <mxCell id="xkh5T4BdzmFQDQVvTXRG-181" style="edgeStyle=orthogonalEdgeStyle;rounded=0;orthogonalLoop=1;jettySize=auto;html=1;exitX=0;exitY=0.5;exitDx=0;exitDy=0;entryX=0.003;entryY=0.37;entryDx=0;entryDy=0;entryPerimeter=0;" edge="1" parent="WIyWlLk6GJQsqaUBKTNV-1" source="xkh5T4BdzmFQDQVvTXRG-126" target="xkh5T4BdzmFQDQVvTXRG-134">
          <mxGeometry relative="1" as="geometry" />
        </mxCell>
        <mxCell id="xkh5T4BdzmFQDQVvTXRG-126" value="chức năng 1" style="shape=process;whiteSpace=wrap;html=1;backgroundOutline=1;" vertex="1" parent="WIyWlLk6GJQsqaUBKTNV-1">
          <mxGeometry x="460" y="720" width="120" height="60" as="geometry" />
        </mxCell>
        <mxCell id="xkh5T4BdzmFQDQVvTXRG-140" style="edgeStyle=orthogonalEdgeStyle;rounded=0;orthogonalLoop=1;jettySize=auto;html=1;exitX=0;exitY=0.5;exitDx=0;exitDy=0;entryX=1;entryY=0.5;entryDx=0;entryDy=0;" edge="1" parent="WIyWlLk6GJQsqaUBKTNV-1" source="xkh5T4BdzmFQDQVvTXRG-127" target="xkh5T4BdzmFQDQVvTXRG-126">
          <mxGeometry relative="1" as="geometry" />
        </mxCell>
        <mxCell id="xkh5T4BdzmFQDQVvTXRG-158" style="edgeStyle=orthogonalEdgeStyle;rounded=0;orthogonalLoop=1;jettySize=auto;html=1;exitX=0.5;exitY=1;exitDx=0;exitDy=0;entryX=0.5;entryY=0;entryDx=0;entryDy=0;" edge="1" parent="WIyWlLk6GJQsqaUBKTNV-1" source="xkh5T4BdzmFQDQVvTXRG-127" target="xkh5T4BdzmFQDQVvTXRG-129">
          <mxGeometry relative="1" as="geometry" />
        </mxCell>
        <mxCell id="xkh5T4BdzmFQDQVvTXRG-127" value="case 1" style="rhombus;whiteSpace=wrap;html=1;" vertex="1" parent="WIyWlLk6GJQsqaUBKTNV-1">
          <mxGeometry x="660" y="710" width="80" height="80" as="geometry" />
        </mxCell>
        <mxCell id="xkh5T4BdzmFQDQVvTXRG-182" style="edgeStyle=orthogonalEdgeStyle;rounded=0;orthogonalLoop=1;jettySize=auto;html=1;exitX=0;exitY=0.5;exitDx=0;exitDy=0;" edge="1" parent="WIyWlLk6GJQsqaUBKTNV-1" source="xkh5T4BdzmFQDQVvTXRG-128">
          <mxGeometry relative="1" as="geometry">
            <mxPoint x="440" y="750" as="targetPoint" />
          </mxGeometry>
        </mxCell>
        <mxCell id="xkh5T4BdzmFQDQVvTXRG-128" value="chức năng 2" style="shape=process;whiteSpace=wrap;html=1;backgroundOutline=1;" vertex="1" parent="WIyWlLk6GJQsqaUBKTNV-1">
          <mxGeometry x="460" y="830" width="120" height="60" as="geometry" />
        </mxCell>
        <mxCell id="xkh5T4BdzmFQDQVvTXRG-141" style="edgeStyle=orthogonalEdgeStyle;rounded=0;orthogonalLoop=1;jettySize=auto;html=1;exitX=0;exitY=0.5;exitDx=0;exitDy=0;entryX=1;entryY=0.5;entryDx=0;entryDy=0;" edge="1" parent="WIyWlLk6GJQsqaUBKTNV-1" source="xkh5T4BdzmFQDQVvTXRG-129" target="xkh5T4BdzmFQDQVvTXRG-128">
          <mxGeometry relative="1" as="geometry" />
        </mxCell>
        <mxCell id="xkh5T4BdzmFQDQVvTXRG-159" style="edgeStyle=orthogonalEdgeStyle;rounded=0;orthogonalLoop=1;jettySize=auto;html=1;exitX=0.5;exitY=1;exitDx=0;exitDy=0;entryX=0.5;entryY=0;entryDx=0;entryDy=0;" edge="1" parent="WIyWlLk6GJQsqaUBKTNV-1" source="xkh5T4BdzmFQDQVvTXRG-129" target="xkh5T4BdzmFQDQVvTXRG-131">
          <mxGeometry relative="1" as="geometry" />
        </mxCell>
        <mxCell id="xkh5T4BdzmFQDQVvTXRG-129" value="case 2" style="rhombus;whiteSpace=wrap;html=1;" vertex="1" parent="WIyWlLk6GJQsqaUBKTNV-1">
          <mxGeometry x="660" y="820" width="80" height="80" as="geometry" />
        </mxCell>
        <mxCell id="xkh5T4BdzmFQDQVvTXRG-130" value="end&amp;nbsp;" style="ellipse;whiteSpace=wrap;html=1;" vertex="1" parent="WIyWlLk6GJQsqaUBKTNV-1">
          <mxGeometry x="450" y="930" width="120" height="80" as="geometry" />
        </mxCell>
        <mxCell id="xkh5T4BdzmFQDQVvTXRG-161" style="edgeStyle=orthogonalEdgeStyle;rounded=0;orthogonalLoop=1;jettySize=auto;html=1;exitX=0;exitY=0.5;exitDx=0;exitDy=0;entryX=1;entryY=0.5;entryDx=0;entryDy=0;" edge="1" parent="WIyWlLk6GJQsqaUBKTNV-1" source="xkh5T4BdzmFQDQVvTXRG-131" target="xkh5T4BdzmFQDQVvTXRG-130">
          <mxGeometry relative="1" as="geometry" />
        </mxCell>
        <mxCell id="xkh5T4BdzmFQDQVvTXRG-131" value="&amp;nbsp;case 3" style="rhombus;whiteSpace=wrap;html=1;" vertex="1" parent="WIyWlLk6GJQsqaUBKTNV-1">
          <mxGeometry x="660" y="930" width="80" height="80" as="geometry" />
        </mxCell>
        <mxCell id="xkh5T4BdzmFQDQVvTXRG-177" style="edgeStyle=orthogonalEdgeStyle;rounded=0;orthogonalLoop=1;jettySize=auto;html=1;exitX=0.5;exitY=1;exitDx=0;exitDy=0;entryX=0.5;entryY=0;entryDx=0;entryDy=0;" edge="1" parent="WIyWlLk6GJQsqaUBKTNV-1" source="xkh5T4BdzmFQDQVvTXRG-134" target="xkh5T4BdzmFQDQVvTXRG-173">
          <mxGeometry relative="1" as="geometry" />
        </mxCell>
        <mxCell id="xkh5T4BdzmFQDQVvTXRG-134" value="print menu&amp;nbsp;" style="shape=process;whiteSpace=wrap;html=1;backgroundOutline=1;" vertex="1" parent="WIyWlLk6GJQsqaUBKTNV-1">
          <mxGeometry x="640" y="440" width="120" height="60" as="geometry" />
        </mxCell>
        <mxCell id="xkh5T4BdzmFQDQVvTXRG-167" style="edgeStyle=orthogonalEdgeStyle;rounded=0;orthogonalLoop=1;jettySize=auto;html=1;exitX=0.5;exitY=1;exitDx=0;exitDy=0;entryX=0.5;entryY=0;entryDx=0;entryDy=0;" edge="1" parent="WIyWlLk6GJQsqaUBKTNV-1" source="xkh5T4BdzmFQDQVvTXRG-162" target="xkh5T4BdzmFQDQVvTXRG-127">
          <mxGeometry relative="1" as="geometry" />
        </mxCell>
        <mxCell id="xkh5T4BdzmFQDQVvTXRG-186" style="edgeStyle=orthogonalEdgeStyle;rounded=0;orthogonalLoop=1;jettySize=auto;html=1;exitX=0;exitY=0.5;exitDx=0;exitDy=0;entryX=1;entryY=0.5;entryDx=0;entryDy=0;" edge="1" parent="WIyWlLk6GJQsqaUBKTNV-1" source="xkh5T4BdzmFQDQVvTXRG-162" target="xkh5T4BdzmFQDQVvTXRG-185">
          <mxGeometry relative="1" as="geometry" />
        </mxCell>
        <mxCell id="xkh5T4BdzmFQDQVvTXRG-162" value="if choice &amp;lt; 1&amp;nbsp;&lt;br&gt;choice &amp;gt;3&amp;nbsp;" style="rhombus;whiteSpace=wrap;html=1;" vertex="1" parent="WIyWlLk6GJQsqaUBKTNV-1">
          <mxGeometry x="660" y="598" width="80" height="80" as="geometry" />
        </mxCell>
        <mxCell id="xkh5T4BdzmFQDQVvTXRG-171" value="true" style="text;html=1;align=center;verticalAlign=middle;resizable=0;points=[];autosize=1;strokeColor=none;fillColor=none;" vertex="1" parent="WIyWlLk6GJQsqaUBKTNV-1">
          <mxGeometry x="590" y="720" width="40" height="30" as="geometry" />
        </mxCell>
        <mxCell id="xkh5T4BdzmFQDQVvTXRG-172" value="true&amp;nbsp;" style="text;html=1;align=center;verticalAlign=middle;resizable=0;points=[];autosize=1;strokeColor=none;fillColor=none;" vertex="1" parent="WIyWlLk6GJQsqaUBKTNV-1">
          <mxGeometry x="585" y="860" width="50" height="30" as="geometry" />
        </mxCell>
        <mxCell id="xkh5T4BdzmFQDQVvTXRG-176" style="edgeStyle=orthogonalEdgeStyle;rounded=0;orthogonalLoop=1;jettySize=auto;html=1;exitX=0.5;exitY=1;exitDx=0;exitDy=0;entryX=0.5;entryY=0;entryDx=0;entryDy=0;" edge="1" parent="WIyWlLk6GJQsqaUBKTNV-1" source="xkh5T4BdzmFQDQVvTXRG-173" target="xkh5T4BdzmFQDQVvTXRG-162">
          <mxGeometry relative="1" as="geometry" />
        </mxCell>
        <mxCell id="xkh5T4BdzmFQDQVvTXRG-173" value="input&amp;nbsp;" style="shape=parallelogram;perimeter=parallelogramPerimeter;whiteSpace=wrap;html=1;fixedSize=1;" vertex="1" parent="WIyWlLk6GJQsqaUBKTNV-1">
          <mxGeometry x="640" y="518" width="120" height="60" as="geometry" />
        </mxCell>
        <mxCell id="xkh5T4BdzmFQDQVvTXRG-179" value="false" style="text;html=1;align=center;verticalAlign=middle;resizable=0;points=[];autosize=1;strokeColor=none;fillColor=none;" vertex="1" parent="WIyWlLk6GJQsqaUBKTNV-1">
          <mxGeometry x="700" y="900" width="50" height="30" as="geometry" />
        </mxCell>
        <mxCell id="xkh5T4BdzmFQDQVvTXRG-180" value="false" style="text;html=1;align=center;verticalAlign=middle;resizable=0;points=[];autosize=1;strokeColor=none;fillColor=none;" vertex="1" parent="WIyWlLk6GJQsqaUBKTNV-1">
          <mxGeometry x="705" y="788" width="50" height="30" as="geometry" />
        </mxCell>
        <mxCell id="xkh5T4BdzmFQDQVvTXRG-183" value="true" style="text;html=1;align=center;verticalAlign=middle;resizable=0;points=[];autosize=1;strokeColor=none;fillColor=none;" vertex="1" parent="WIyWlLk6GJQsqaUBKTNV-1">
          <mxGeometry x="590" y="608" width="40" height="30" as="geometry" />
        </mxCell>
        <mxCell id="xkh5T4BdzmFQDQVvTXRG-184" value="false" style="text;html=1;align=center;verticalAlign=middle;resizable=0;points=[];autosize=1;strokeColor=none;fillColor=none;" vertex="1" parent="WIyWlLk6GJQsqaUBKTNV-1">
          <mxGeometry x="705" y="678" width="50" height="30" as="geometry" />
        </mxCell>
        <mxCell id="xkh5T4BdzmFQDQVvTXRG-187" style="edgeStyle=elbowEdgeStyle;rounded=0;orthogonalLoop=1;jettySize=auto;html=1;exitX=0;exitY=0.5;exitDx=0;exitDy=0;entryX=0;entryY=0.5;entryDx=0;entryDy=0;" edge="1" parent="WIyWlLk6GJQsqaUBKTNV-1" source="xkh5T4BdzmFQDQVvTXRG-185" target="xkh5T4BdzmFQDQVvTXRG-173">
          <mxGeometry relative="1" as="geometry">
            <mxPoint x="450" y="540" as="targetPoint" />
            <Array as="points">
              <mxPoint x="450" y="590" />
            </Array>
          </mxGeometry>
        </mxCell>
        <mxCell id="xkh5T4BdzmFQDQVvTXRG-185" value="yêu cầu nhập lại" style="shape=parallelogram;perimeter=parallelogramPerimeter;whiteSpace=wrap;html=1;fixedSize=1;" vertex="1" parent="WIyWlLk6GJQsqaUBKTNV-1">
          <mxGeometry x="470" y="608" width="120" height="60" as="geometry" />
        </mxCell>
        <mxCell id="xkh5T4BdzmFQDQVvTXRG-188" value="Text" style="text;html=1;align=center;verticalAlign=middle;resizable=0;points=[];autosize=1;strokeColor=none;fillColor=none;" vertex="1" parent="WIyWlLk6GJQsqaUBKTNV-1">
          <mxGeometry x="585" y="938" width="50" height="30" as="geometry" />
        </mxCell>
      </root>
    </mxGraphModel>
  </diagram>
</mxfile>
